<svg width="32" height="32" fill="none" xmlns="http://www.w3.org/2000/svg"><rect width="32" height="32" rx="5" fill="#F3F3F3"/><g clip-path="url(#clip0)"><path d="M17.26 25.297h-2.995a.907.907 0 01-.907-.906V17.65h-1.747a.907.907 0 01-.908-.906v-2.889c0-.5.407-.905.908-.905h1.747v-1.447c0-1.435.451-2.655 1.305-3.53.858-.878 2.056-1.342 3.466-1.342l2.284.004c.5 0 .906.407.906.905v2.683c0 .5-.407.905-.907.905l-1.538.001c-.469 0-.588.094-.614.123-.042.047-.092.182-.092.555v1.143h2.128a.908.908 0 01.916.906l-.001 2.889a.907.907 0 01-.907.905h-2.136v6.742c0 .5-.407.906-.908.906zm-2.806-1.095h2.617V17.16c0-.333.272-.605.606-.605h2.438v-2.51h-2.438a.606.606 0 01-.606-.606v-1.632c0-.428.044-.914.367-1.28.39-.441 1.007-.492 1.436-.492h1.349V7.727l-2.095-.003c-2.265 0-3.674 1.447-3.674 3.777v1.936a.606.606 0 01-.605.605h-2.05v2.511h2.05c.334 0 .605.272.605.605v7.044zm5.957-16.474z" fill="#000"/></g><defs><clipPath id="clip0"><path fill="#fff" transform="translate(6.667 6.667)" d="M0 0h18.667v18.667H0z"/></clipPath></defs></svg>