<svg version="1.1" id="Badges" xmlns="http://www.w3.org/2000/svg" x="0" y="0" viewBox="0 0 128 40" xml:space="preserve"><style>.st4{fill:#fff}</style><path d="M124 40H4c-2.2 0-4-1.8-4-4V4c0-2.2 1.8-4 4-4h120c2.2 0 4 1.8 4 4v32c0 2.2-1.8 4-4 4z"/><linearGradient id="SVGID_1_" gradientUnits="userSpaceOnUse" x1="16.258" y1="35.424" x2="21.856" y2="12.433" gradientTransform="matrix(1 0 0 -1 0 42)"><stop offset="0" stop-color="#006884"/><stop offset="1" stop-color="#8ad1d0"/></linearGradient><path d="M9.8 19.6V9.1c0-.6.5-1.1 1-1.1s.7.1 1 .3l19.3 10.6c.4.2.6.5.6.8s-.2.6-.6.8L11.8 31.1c-.2.1-.5.3-1 .3s-1-.5-1-1.1V19.6z" fill="url(#SVGID_1_)"/><linearGradient id="SVGID_2_" gradientUnits="userSpaceOnUse" x1="9.426" y1="32.13" x2="24.682" y2="23.882" gradientTransform="matrix(1 0 0 -1 0 42)"><stop offset="0" stop-color="#24bbb6"/><stop offset="1" stop-color="#dbe692"/></linearGradient><path d="M22.3 19.7L10.6 8h.2c.5 0 .7.1 1 .3L26 16.1l-3.7 3.6z" fill="url(#SVGID_2_)"/><linearGradient id="SVGID_3_" gradientUnits="userSpaceOnUse" x1="27" y1="18.38" x2="27" y2="26.328" gradientTransform="matrix(1 0 0 -1 0 42)"><stop offset="0" stop-color="#fcc072"/><stop offset="1" stop-color="#f58a5b"/></linearGradient><path d="M25.9 23.2l-3.6-3.6 3.7-3.7 5.1 2.8c.4.2.6.5.6.8s-.2.6-.6.8l-5.2 2.9z" fill="url(#SVGID_3_)"/><linearGradient id="SVGID_4_" gradientUnits="userSpaceOnUse" x1="12.365" y1="8.76" x2="24.417" y2="21.025" gradientTransform="matrix(1 0 0 -1 0 42)"><stop offset="0" stop-color="#712b8f"/><stop offset="1" stop-color="#ea1d27"/></linearGradient><path d="M10.7 31.2l11.6-11.6 3.6 3.6-14.1 7.7c-.3.2-.5.3-1.1.3.1 0 .1 0 0 0z" fill="url(#SVGID_4_)"/><path class="st4" d="M71.1 33.9c-.5-.4-.9-1.1-1.1-1.5l1.6-.7c.1.2.3.5.5.8.4.4 1 .8 1.6.8s1.3-.3 1.7-.8c.3-.5.5-1 .5-1.7v-.6c-1.2 1.5-3.7 1.3-5.1-.3-1.5-1.6-1.5-4.3 0-5.9 1.5-1.5 3.7-1.7 5-.3V23h1.7v7.5c0 1.9-.7 3-1.6 3.7-.6.5-1.5.7-2.3.7-.9-.1-1.8-.4-2.5-1zm41.9.4l1.7-4-3-6.9h1.7l2.1 4.9 2.1-4.9h1.7l-4.6 10.9H113zm-8.1-3.8c-.5-.5-.7-1.2-.7-1.9 0-.6.2-1.2.6-1.6.7-.7 1.7-1 2.8-1 .7 0 1.3.1 1.8.4 0-1.2-1-1.7-1.8-1.7-.7 0-1.4.4-1.7 1.1l-1.5-.6c.3-.7 1.1-2 3.1-2 1 0 2 .3 2.6 1s.8 1.5.8 2.6V31h-1.7v-.7c-.2.3-.6.5-.9.7-.4.2-.9.3-1.4.3-.6-.1-1.5-.3-2-.8zm-53.3-3.6c0-2 1.5-4.2 4.2-4.2 2.6 0 4.2 2.2 4.2 4.2s-1.5 4.2-4.2 4.2-4.2-2.2-4.2-4.2zm9 0c0-2 1.5-4.2 4.2-4.2 2.6 0 4.2 2.2 4.2 4.2s-1.5 4.2-4.2 4.2c-2.6 0-4.2-2.2-4.2-4.2zm-20.3 2.2c-2.5-2.5-2.4-6.6.1-9.2 1.3-1.3 2.9-1.9 4.6-1.9 1.6 0 3.2.6 4.4 1.8l-1.2 1.3c-1.8-1.8-4.7-1.7-6.4.1-1.8 1.9-1.8 4.8 0 6.7s4.8 2 6.6.1c.6-.6.8-1.4.9-2.2h-4.2V24H51c.1.4.1.9.1 1.4 0 1.5-.6 3-1.6 4-1.1 1.1-2.7 1.7-4.3 1.7-1.8-.1-3.6-.7-4.9-2zm42.3.7c-1.5-1.6-1.5-4.3 0-6 1.5-1.6 4-1.6 5.4 0 .5.5.8 1.2 1.1 1.9L83.6 28c.3.7 1 1.3 2 1.3.9 0 1.5-.3 2.1-1.2l1.5 1c-.2.2-.4.4-.5.6-1.7 1.7-4.6 1.7-6.1.1zM93 31V19.9h3.6c2.1 0 3.8 1.5 3.8 3.3s-1.5 3.3-3.4 3.3h-2.2v4.4L93 31zm8.4 0V19.9h1.7V31h-1.7zm-22.6-.2V18.4h1.8v12.4h-1.8zm30.5-3.1c-.4-.3-1-.4-1.6-.4-1.2 0-1.9.6-1.9 1.3s.7 1.1 1.4 1.1c1 0 2.1-.8 2.1-2zm-51.2-.8c0-1.2-.8-2.5-2.3-2.5s-2.3 1.3-2.3 2.5.8 2.5 2.3 2.5c1.4 0 2.3-1.3 2.3-2.5zm9 0c0-1.2-.8-2.5-2.3-2.5s-2.3 1.3-2.3 2.5.8 2.5 2.3 2.5 2.3-1.3 2.3-2.5zm8.9.7c0-.1 0-.2.1-.3v-.9c0-.1-.1-.3-.1-.4-.3-1-1.2-1.7-2.1-1.7-1.2 0-2.2 1.2-2.2 2.5 0 1.4 1 2.5 2.3 2.5.8.1 1.6-.6 2-1.7zm7.3-.9l3.7-1.6c-.4-.7-1-.9-1.5-.9-1.5.1-2.4 1.7-2.2 2.5zm15.3-3.4c0-1-.8-1.7-1.9-1.7h-2v3.5h2.1c1 0 1.8-.8 1.8-1.8z"/><path class="st4" d="M114.3 32.3h-.1v-.1h.1-.1v.1zm0 0c0-.1 0-.1 0 0 0-.1 0-.1 0 0zm0-.1zm0 .1v-.1.1zm0 0zm0-.1zm0 0v.1-.1zm0 .1v-.1.1zm0 0c0-.1 0-.1 0 0zm0 0c0-.1 0-.1 0 0zm.1 0c0-.1 0-.1 0 0 0-.1 0-.1 0 0 0-.1 0-.1 0 0zm0-.1zm0 .1c0-.1 0-.1 0 0zm0-.1v.1zm0 .1v-.1.1zm0 0c0-.1 0-.1 0 0 0-.1 0-.1 0 0zm0-.1c0 .1 0 .1 0 0 0 .1 0 .1 0 0zm0 .1c0-.1 0-.1 0 0 0-.1 0-.1 0 0 0-.1 0-.1 0 0 0-.1 0-.1 0 0zm.1 0c0-.1 0-.1 0 0-.1-.1-.1-.1 0 0-.1 0-.1 0 0 0zm0-.1c0 .1 0 .1 0 0 0 .1-.1.1 0 0-.1 0 0 0 0 0zm0 .1v-.1.1-.1.1-.1zm0 0zm0-.1zm0 .1c0-.1 0-.1 0 0 0-.1 0-.1 0 0 0-.1 0-.1 0 0 0-.1 0-.1 0 0 0-.1 0-.1 0 0 0-.1 0-.1 0 0 0-.1 0-.1 0 0 0-.1 0-.1 0 0zm.1-.1h-.1.1v.1-.1zm0 .1v-.1.1zm0 0c0-.1 0-.1 0 0 0-.1 0-.1 0 0zm0-.1zM38.9 10.1c0-1.8 1.3-2.9 2.9-2.9 1.1 0 1.8.5 2.3 1.2l-.8.5c-.3-.4-.8-.7-1.5-.7-1.1 0-1.9.8-1.9 2s.8 2 1.9 2c.6 0 1.1-.3 1.3-.5v-.9h-1.6v-.9h2.7V12c-.5.6-1.3 1-2.3 1-1.7 0-3-1.2-3-2.9zm6.5 2.8V7.3h3.8v.9h-2.9v1.4h2.8v.9h-2.8v1.6h2.9v.9l-3.8-.1zm6.6 0V8.2h-1.7v-.9h4.4v.9H53v4.7h-1zm6.1 0V7.3h1v5.6h-1zm3.7 0V8.2h-1.7v-.9h4.4v.9h-1.7v4.7h-1zm5.9-2.8c0-1.7 1.2-2.9 2.9-2.9s2.9 1.2 2.9 2.9-1.2 2.9-2.9 2.9-2.9-1.3-2.9-2.9zm4.7 0c0-1.2-.7-2-1.9-2-1.1 0-1.9.9-1.9 2 0 1.2.7 2 1.9 2s1.9-.9 1.9-2zm6.1 2.8l-2.9-4v4h-1V7.3h1l2.9 3.9V7.3h1v5.6h-1z"/></svg>