<svg width="32" height="32" fill="none" xmlns="http://www.w3.org/2000/svg"><rect width="32" height="32" rx="5" fill="#F3F3F3"/><path d="M20.128 7h-8.256A4.878 4.878 0 007 11.872v8.256A4.878 4.878 0 0011.872 25h8.256A4.878 4.878 0 0025 20.128v-8.256A4.878 4.878 0 0020.128 7zm3.817 13.128a3.821 3.821 0 01-3.817 3.817h-8.256a3.821 3.821 0 01-3.817-3.817v-8.256a3.821 3.821 0 013.817-3.817h8.256a3.821 3.821 0 013.817 3.817v8.256z" fill="#000"/><path d="M16 11.078A4.927 4.927 0 0011.078 16 4.927 4.927 0 0016 20.922 4.927 4.927 0 0020.922 16 4.927 4.927 0 0016 11.078zm0 8.788A3.87 3.87 0 0112.133 16 3.871 3.871 0 0116 12.133 3.87 3.87 0 0119.866 16 3.87 3.87 0 0116 19.866zM21.04 9.33a1.456 1.456 0 000 2.909c.801 0 1.454-.652 1.454-1.454 0-.802-.653-1.455-1.455-1.455zm0 1.854a.4.4 0 110-.8.4.4 0 010 .8z" fill="#000"/></svg>