<svg width="40" height="40" fill="none" xmlns="http://www.w3.org/2000/svg"><g clip-path="url(#clip0)"><path d="M29.821 19.896a.586.586 0 00-.606.038l-2.947 2.05a.587.587 0 00-.251.481v8.797c0 1.136.924 2.06 2.06 2.06 1.135 0 2.06-.924 2.06-2.06V20.416a.586.586 0 00-.316-.52zm-6.544 4.552a.587.587 0 00-.607.038l-2.946 2.05a.586.586 0 00-.251.482v3c0 1.136.923 2.06 2.06 2.06a2.062 2.062 0 002.059-2.06v-5.05a.586.586 0 00-.315-.52zM12.34 32.056a.587.587 0 00-.606.038l-2.946 2.05a.587.587 0 00-.252.481v3.316c0 1.135.924 2.06 2.06 2.06 1.135 0 2.06-.925 2.06-2.06v-5.365a.587.587 0 00-.316-.52z" fill="#FFEBA1"/><path d="M29.821 19.896a.586.586 0 00-.606.038l-1.139.792v10.536a2.06 2.06 0 01-1.03 1.783 2.062 2.062 0 003.09-1.783V20.416a.586.586 0 00-.315-.52zm-6.544 4.552a.587.587 0 00-.607.038l-1.138.792v4.74a2.06 2.06 0 01-1.03 1.783 2.062 2.062 0 003.09-1.782v-5.051a.586.586 0 00-.315-.52zM12.34 32.056a.587.587 0 00-.606.038l-1.138.792v5.054c0 .76-.415 1.426-1.03 1.783a2.062 2.062 0 003.09-1.783v-5.365a.587.587 0 00-.316-.52z" fill="#F7D36F"/><path d="M32.867 18.108a1.225 1.225 0 01-.171-.357c-.005-.014-.45-1.5-1.99-3.614-1.458-2-4.181-4.902-8.875-7.367s-8.628-3.06-11.103-3.124c-2.613-.07-4.09.408-4.105.413-.123.04-.252.06-.386.06H6.23a.586.586 0 00-.586.584L5.51 36.728a.587.587 0 00.922.484l26.29-18.288a.587.587 0 00.147-.816z" fill="#FFDB57"/><path d="M5.823 37.25a.584.584 0 00.608-.038l26.29-18.288a.587.587 0 00.146-.816 1.242 1.242 0 01-.172-.357c-.002-.01-.209-.696-.82-1.796L5.52 34.228l-.01 2.5c-.002.219.12.42.313.522z" fill="#F6C134"/><path d="M15.611 12.49a3.682 3.682 0 00-3.678 3.679 3.682 3.682 0 003.678 3.678 3.682 3.682 0 003.678-3.678 3.682 3.682 0 00-3.678-3.678z" fill="#F2433B"/><path d="M15.611 17.263a3.684 3.684 0 01-3.443-2.386 3.682 3.682 0 003.443 4.97 3.682 3.682 0 003.443-4.97 3.684 3.684 0 01-3.443 2.386z" fill="#D83636"/><path d="M8.727 18.497a3.658 3.658 0 00-2.539-1.106.587.587 0 00-.6.584l-.026 6.18a.584.584 0 00.586.588h.01a3.694 3.694 0 003.616-3.676c0-.966-.372-1.88-1.047-2.57z" fill="#F2433B"/><path d="M6.158 22.122h-.01a.587.587 0 01-.576-.477l-.01 2.51a.587.587 0 00.586.588h.01a3.694 3.694 0 003.616-3.676 3.67 3.67 0 00-.243-1.316 3.696 3.696 0 01-3.373 2.371z" fill="#D83636"/><path d="M24.17 18.446a3.682 3.682 0 00-3.679 3.678 3.67 3.67 0 002.271 3.399.587.587 0 00.56-.06l4.271-2.972a.587.587 0 00.251-.503 3.664 3.664 0 00-3.675-3.542zm4.822-6.359a25.496 25.496 0 00-3.948-3.371.588.588 0 00-.483-.087 3.678 3.678 0 00.928 7.238 3.662 3.662 0 003.66-3.32.586.586 0 00-.157-.46z" fill="#F2433B"/><path d="M28.51 11.595a3.683 3.683 0 01-6.443-.758 3.682 3.682 0 003.421 5.03 3.662 3.662 0 003.662-3.32.587.587 0 00-.158-.46 22.27 22.27 0 00-.481-.492z" fill="#D83636"/><path d="M16.533 4.897a.587.587 0 00-.41-.412c-1.849-.512-3.664-.794-5.395-.84a18.838 18.838 0 00-.364-.005h-.005a.586.586 0 00-.497.276 3.668 3.668 0 00-.557 1.944 3.682 3.682 0 003.678 3.678 3.682 3.682 0 003.55-4.641z" fill="#F2433B"/><path d="M16.363 4.62a3.683 3.683 0 01-3.38 2.228 3.684 3.684 0 01-3.422-2.334 3.682 3.682 0 003.423 5.025 3.682 3.682 0 003.549-4.642.582.582 0 00-.17-.278z" fill="#D83636"/><path d="M18.07 28.554a3.668 3.668 0 00-3.4-2.273 3.682 3.682 0 00-3.678 3.678c0 1.02.43 2.004 1.18 2.698a.586.586 0 00.733.051l4.958-3.449a.587.587 0 00.207-.705z" fill="#F2433B"/><path d="M36.192 16.724c-.092-.315-2.383-7.777-12.66-13.177l-.01-.006C13.241-1.856 5.795.494 5.483.596A2.412 2.412 0 003.95 3.637a2.392 2.392 0 001.2 1.398 2.39 2.39 0 001.832.14c.013-.004 1.376-.418 3.715-.357 2.35.061 6.093.63 10.588 2.99 4.494 2.36 7.087 5.12 8.471 7.02 1.378 1.89 1.81 3.247 1.813 3.254a2.393 2.393 0 001.157 1.435 2.393 2.393 0 001.833.197 2.394 2.394 0 001.436-1.157 2.394 2.394 0 00.196-1.833z" fill="#FF9F34"/><path d="M34.788 17.914c-.002-.008-.519-1.625-2.16-3.878-1.65-2.263-4.74-5.552-10.095-8.365-5.356-2.812-9.817-3.49-12.617-3.563-2.787-.072-4.411.42-4.427.426a2.836 2.836 0 01-1.64.041c-.046.347-.017.709.1 1.062A2.392 2.392 0 005.15 5.035a2.39 2.39 0 001.832.14c.013-.004 1.376-.418 3.715-.357 2.35.061 6.093.63 10.588 2.99 4.494 2.36 7.087 5.12 8.471 7.02 1.378 1.89 1.81 3.247 1.813 3.254a2.394 2.394 0 001.157 1.435 2.394 2.394 0 001.833.197 2.4 2.4 0 00.974-.558 2.85 2.85 0 01-.746-1.242z" fill="#FB8F2D"/><path d="M22.762 25.523a.587.587 0 00.56-.06l4.271-2.972a.587.587 0 00.251-.503 3.665 3.665 0 00-1.088-2.485l-5.945 4.123a3.67 3.67 0 001.951 1.897zm-10.59 7.134a.586.586 0 00.733.051l4.958-3.449a.587.587 0 00.207-.705 3.671 3.671 0 00-1.692-1.855l-5.356 3.714a3.691 3.691 0 001.15 2.244z" fill="#D83636"/></g><defs><clipPath id="clip0"><path fill="#fff" d="M0 0h40v40H0z"/></clipPath></defs></svg>