<svg width="32" height="32" fill="none" xmlns="http://www.w3.org/2000/svg"><rect width="32" height="32" rx="5" fill="#F3F3F3"/><g clip-path="url(#clip0)"><path d="M16.116 22c2.778 0 1.787-1.758 2.002-2.264-.003-.378-.007-.74.006-.962.176.05.591.26 1.449 1.094C20.897 21.204 21.235 22 22.305 22h1.969c.624 0 .948-.258 1.11-.475.158-.21.311-.578.143-1.15-.439-1.38-3-3.761-3.16-4.013.024-.046.063-.108.083-.14h-.002c.506-.668 2.435-3.559 2.72-4.716V11.5c.155-.528.014-.87-.132-1.064-.22-.29-.568-.436-1.04-.436h-1.968c-.66 0-1.16.332-1.412.938-.423 1.076-1.612 3.288-2.503 4.072a51.29 51.29 0 01.006-2.587c.028-1.228.121-2.423-1.153-2.423H13.87c-.798 0-1.562.872-.735 1.907.723.907.26 1.413.416 3.93-.608-.652-1.69-2.413-2.454-4.663-.215-.61-.54-1.173-1.454-1.173H7.675c-.798 0-1.275.435-1.275 1.164C6.4 12.802 10.023 22 16.116 22zM9.644 11.2c.174 0 .191 0 .32.366.783 2.307 2.54 5.72 3.823 5.72.964 0 .964-.988.964-1.36v-2.962c-.053-.98-.41-1.468-.644-1.764l2.806.003c.002.014-.016 3.276.008 4.067 0 1.122.891 1.765 2.282.357 1.468-1.657 2.483-4.133 2.524-4.234.06-.144.112-.193.301-.193h1.977c0 .002 0 .005-.002.007-.18.84-1.956 3.517-2.55 4.348l-.028.04c-.262.427-.474.9.036 1.563.047.056.168.188.344.37.547.565 2.424 2.496 2.59 3.264-.11.018-.23.005-2.09.009-.396 0-.706-.592-1.887-1.784-1.063-1.034-1.752-1.456-2.38-1.456-1.22 0-1.13.99-1.12 2.186.005 1.298-.003.887.005.969-.07.028-.275.084-.807.084-5.076 0-8.381-8.057-8.509-9.597.044-.004.65-.001 2.037-.002z" fill="#000"/></g><defs><clipPath id="clip0"><path fill="#fff" transform="translate(6.4 6.4)" d="M0 0h19.2v19.2H0z"/></clipPath></defs></svg>