<svg width="32" height="32" fill="none" xmlns="http://www.w3.org/2000/svg"><rect width="32" height="32" rx="5" fill="#F3F3F3"/><path d="M21.42 9.388H10.58A3.589 3.589 0 007 12.978v6.043c0 1.98 1.606 3.59 3.58 3.59h10.84a3.59 3.59 0 003.58-3.59v-6.043a3.59 3.59 0 00-3.58-3.59zm2.845 9.634a2.853 2.853 0 01-2.844 2.856H10.579a2.854 2.854 0 01-2.844-2.856v-6.044a2.854 2.854 0 012.844-2.856h10.842a2.854 2.854 0 012.844 2.856v6.044z" fill="#000"/><path d="M19.255 15.867l-5.09-2.981a.368.368 0 00-.553.317v5.962a.368.368 0 00.553.317l5.09-2.98a.368.368 0 000-.635zm-4.908 2.657v-4.68l3.995 2.34-3.995 2.34z" fill="#000"/></svg>